<?xml version="1.0" encoding="UTF-8"?>
<!DOCTYPE svg PUBLIC "-//W3C//DTD SVG 1.1//EN" "http://www.w3.org/Graphics/SVG/1.1/DTD/svg11.dtd">
<!-- Creator: CorelDRAW X7 -->
<svg xmlns="http://www.w3.org/2000/svg" xml:space="preserve" width="600px" height="797px" version="1.1" style="shape-rendering:geometricPrecision; text-rendering:geometricPrecision; image-rendering:optimizeQuality; fill-rule:evenodd; clip-rule:evenodd"
viewBox="0 0 600 797"
 xmlns:xlink="http://www.w3.org/1999/xlink">
 <defs>
  <style type="text/css">
   <![CDATA[
    .fil2 {fill:#33CC33}
    .fil1 {fill:#33CC33}
    .fil0 {fill:white}
   ]]>
  </style>
 </defs>
 <g id="Camada_x0020_1">
  <metadata id="CorelCorpID_0Corel-Layer"/>
  <g id="_2529035926768">
   <rect class="fil0" x="1" width="598" height="797"/>
   <g>
    <path class="fil1" d="M1 197c176,0 352,0 528,0 25,-1 42,0 66,4 7,36 4,108 4,148l-598 0 0 -152z"/>
    <path class="fil2" d="M363 156c3,-2 6,-3 9,-4 8,-3 15,-6 22,-9 67,-28 134,-56 201,-84 0,0 3,-1 3,-1 1,0 1,2 1,3 0,4 0,7 0,10 0,9 0,17 0,25 0,7 0,13 0,20 0,1 0,3 0,5 0,11 0,23 0,35 0,13 0,27 0,41l1 139 -169 -70c-3,-1 -6,-2 -9,-3 -4,-2 -9,-4 -13,-6 -2,-1 -4,-1 -5,-2 -1,0 -3,-1 -4,-1 -1,-1 -3,-2 -4,-2 -3,-1 -6,-3 -9,-4 -5,-2 -10,-4 -14,-6 -2,0 -3,-1 -5,-1 -2,-1 -5,-3 -8,-4 -5,-2 -9,-4 -14,-6 -1,0 -3,-1 -4,-1 -2,-1 -3,-1 -5,-2 -3,-1 -5,-2 -8,-4 -9,-3 -18,-7 -27,-11 -7,-2 -13,-5 -19,-7 -1,-1 -3,-2 -5,-2 -1,-1 -2,-1 -4,-2 -1,-1 -10,-4 -10,-4 -1,-1 1,-1 1,-2 7,-2 13,-5 20,-8 26,-11 52,-21 78,-32z"/>
   </g>
   <rect class="fil2" transform="matrix(-0.240223 -1.46838 -1.20813 -0.908499 593.492 761.294)" width="72.7581" height="470.434"/>
   <rect class="fil2" y="637" width="598" height="159"/>
  </g>
 </g>
</svg>
